<svg version="1.1" xmlns="http://www.w3.org/2000/svg" viewBox="0 0 701.7109375 435.2109375" width="701.7109375" height="435.2109375">
  <!-- svg-source:excalidraw -->
  
  <defs>
    <style class="style-fonts">
      @font-face {
        font-family: "Virgil";
        src: url("https://excalidraw.com/Virgil.woff2");
      }
      @font-face {
        font-family: "Cascadia";
        src: url("https://excalidraw.com/Cascadia.woff2");
      }
      @font-face {
        font-family: "Assistant";
        src: url("https://excalidraw.com/Assistant-Regular.woff2");
      }
    </style>
    
  </defs>
  <rect x="0" y="0" width="701.7109375" height="435.2109375" fill="#ffffff"></rect><g transform="translate(17 82.37890625) rotate(0 18.5 11)" stroke="none"><path fill="#1e1e1e" d="M 1.31,0 Q 1.31,0 1.31,1.43 1.31,2.87 1.31,4.06 1.31,5.24 1.31,6.32 1.31,7.39 1.58,8.57 1.85,9.75 2.96,11.97 4.06,14.18 5.46,16.29 6.86,18.41 7.52,19.55 8.18,20.70 8.97,21.65 9.75,22.61 11.18,23.75 12.62,24.89 13.55,25.79 14.49,26.70 16.07,27.46 17.66,28.22 18.78,28.39 19.91,28.57 21.34,28.61 22.77,28.66 23.97,28.67 25.17,28.68 26.38,28.48 27.60,28.28 28.69,27.01 29.78,25.73 30.68,24.45 31.58,23.16 32.83,21.80 34.07,20.44 34.70,19.27 35.32,18.10 35.46,16.94 35.59,15.78 35.61,14.71 35.64,13.63 35.65,12.30 35.66,10.97 35.67,9.83 35.67,8.68 35.41,6.77 35.15,4.87 34.32,2.95 33.49,1.03 32.78,0.14 32.08,-0.74 31.66,-1.92 31.23,-3.10 30.45,-4.20 29.66,-5.31 28.57,-5.93 27.48,-6.56 25.81,-6.62 24.15,-6.67 22.57,-6.68 20.99,-6.68 19.60,-6.68 18.21,-6.68 17.01,-6.68 15.82,-6.68 14.60,-6.72 13.38,-6.76 12.13,-6.27 10.89,-5.79 10.08,-5.01 9.27,-4.23 8.39,-3.39 7.51,-2.55 6.64,-1.61 5.77,-0.67 5.13,0.50 4.49,1.68 3.42,1.63 2.34,1.57 2.30,1.72 2.26,1.88 2.18,2.02 2.11,2.15 2.00,2.27 1.89,2.39 1.76,2.47 1.63,2.56 1.48,2.61 1.33,2.66 1.17,2.68 1.01,2.69 0.86,2.67 0.70,2.65 0.55,2.59 0.41,2.53 0.28,2.44 0.15,2.34 0.05,2.22 -0.04,2.10 -0.11,1.96 -0.18,1.82 -0.22,1.66 -0.25,1.51 -0.25,1.35 -0.24,1.19 -0.22,1.49 -0.19,1.80 -0.22,1.59 -0.26,1.38 -0.22,1.17 -0.19,0.96 -0.09,0.77 0.00,0.58 0.16,0.44 0.31,0.29 0.50,0.20 0.70,0.12 0.91,0.09 1.12,0.07 1.33,0.12 1.53,0.16 1.72,0.27 1.90,0.38 2.03,0.54 2.17,0.71 2.25,0.90 2.33,1.10 2.34,1.31 2.35,1.53 2.29,1.73 2.24,1.93 2.12,2.11 2.00,2.29 1.83,2.41 1.66,2.54 1.46,2.61 1.26,2.68 1.04,2.68 0.83,2.68 0.63,2.61 0.43,2.54 0.26,2.41 0.09,2.28 -0.02,2.11 -0.14,1.93 -0.19,1.73 -0.25,1.52 -0.24,1.31 -0.23,1.10 -0.15,0.90 -0.07,0.70 0.06,0.54 0.20,0.38 0.38,0.27 0.56,0.16 0.77,0.11 0.98,0.07 1.19,0.09 1.40,0.12 1.59,0.21 1.78,0.30 1.94,0.44 2.09,0.59 2.22,1.08 2.34,1.57 2.30,1.72 2.26,1.88 2.18,2.02 2.11,2.15 2.00,2.27 1.89,2.39 1.76,2.47 1.63,2.56 1.48,2.61 1.33,2.66 1.17,2.68 1.01,2.69 0.86,2.67 0.70,2.65 0.55,2.59 0.41,2.53 0.28,2.44 0.15,2.34 0.05,2.22 -0.04,2.10 -0.11,1.96 -0.18,1.82 -0.22,1.66 -0.25,1.51 -0.25,1.35 -0.24,1.19 0.88,1.01 2.01,0.83 2.64,-0.26 3.27,-1.37 4.20,-2.30 5.12,-3.24 6.17,-4.24 7.21,-5.24 8.08,-6.36 8.94,-7.48 10.32,-7.97 11.69,-8.45 13.23,-8.88 14.77,-9.31 15.85,-9.31 16.93,-9.31 18.39,-9.31 19.84,-9.31 21.09,-9.31 22.34,-9.30 24.06,-9.29 25.78,-9.28 26.88,-9.21 27.98,-9.14 29.32,-8.62 30.66,-8.10 31.70,-6.86 32.75,-5.62 33.47,-3.95 34.19,-2.29 35.03,-1.18 35.87,-0.06 36.34,0.96 36.82,2.00 37.25,3.08 37.68,4.16 37.99,5.36 38.30,6.55 38.30,7.62 38.30,8.70 38.29,9.84 38.29,10.99 38.28,12.35 38.26,13.70 38.15,15.58 38.04,17.46 37.77,18.49 37.51,19.53 36.87,20.74 36.22,21.94 34.97,23.31 33.72,24.68 32.80,26.00 31.87,27.32 30.39,28.94 28.90,30.56 27.56,30.93 26.21,31.31 25.12,31.30 24.03,31.30 22.50,31.28 20.98,31.26 19.35,31.11 17.73,30.96 16.40,30.31 15.07,29.65 13.90,29.14 12.73,28.63 11.80,27.74 10.86,26.84 9.30,25.56 7.73,24.29 6.82,23.15 5.91,22.01 5.29,20.94 4.67,19.86 3.83,18.60 3.00,17.34 2.36,16.34 1.71,15.35 0.96,13.83 0.21,12.31 -0.24,11.32 -0.70,10.33 -1.00,8.87 -1.31,7.41 -1.31,6.32 -1.31,5.24 -1.31,4.06 -1.31,2.87 -1.31,1.43 -1.31,0 -1.29,-0.15 -1.27,-0.31 -1.21,-0.46 -1.16,-0.61 -1.07,-0.74 -0.98,-0.87 -0.86,-0.97 -0.74,-1.08 -0.60,-1.15 -0.46,-1.22 -0.31,-1.26 -0.15,-1.30 0.00,-1.30 0.15,-1.30 0.31,-1.26 0.46,-1.22 0.60,-1.15 0.74,-1.08 0.86,-0.97 0.98,-0.87 1.07,-0.74 1.16,-0.61 1.21,-0.46 1.27,-0.31 1.29,-0.15 1.31,0.00 1.31,0.00 L 1.31,0 Z"></path></g><g transform="translate(10 145.37890625) rotate(0 30 -0.5)" stroke="none"><path fill="#1e1e1e" d="M 0,-1.31 Q 0,-1.31 2.58,-1.31 5.17,-1.31 7.42,-1.31 9.67,-1.31 11.78,-1.31 13.88,-1.31 16.50,-1.31 19.12,-1.31 20.81,-1.31 22.50,-1.31 25.66,-1.31 28.81,-1.31 30.88,-1.31 32.94,-1.31 34.40,-1.31 35.85,-1.31 37.53,-1.57 39.20,-1.83 40.29,-1.97 41.38,-2.12 43.02,-2.20 44.67,-2.28 45.91,-2.29 47.15,-2.30 48.70,-2.31 50.25,-2.31 51.75,-2.31 53.26,-2.31 54.76,-2.31 56.26,-2.31 57.97,-2.31 59.68,-2.31 59.89,-2.27 60.10,-2.24 60.29,-2.14 60.48,-2.04 60.62,-1.89 60.77,-1.73 60.86,-1.54 60.95,-1.35 60.97,-1.14 60.99,-0.92 60.95,-0.72 60.90,-0.51 60.79,-0.33 60.68,-0.14 60.52,-0.01 60.36,0.12 60.16,0.20 59.96,0.28 59.75,0.29 59.54,0.30 59.33,0.24 59.13,0.19 58.95,0.07 58.78,-0.04 58.65,-0.21 58.52,-0.38 58.45,-0.58 58.38,-0.78 58.38,-1.00 58.38,-1.21 58.45,-1.41 58.52,-1.61 58.65,-1.78 58.78,-1.95 58.95,-2.07 59.13,-2.19 59.33,-2.24 59.54,-2.30 59.75,-2.29 59.96,-2.28 60.16,-2.20 60.36,-2.12 60.52,-1.98 60.68,-1.84 60.79,-1.66 60.90,-1.48 60.95,-1.27 60.99,-1.07 60.97,-0.85 60.95,-0.64 60.86,-0.45 60.77,-0.26 60.62,-0.10 60.48,0.04 60.29,0.14 60.10,0.24 59.89,0.27 59.68,0.31 59.68,0.31 59.68,0.31 56.97,0.31 54.26,0.31 52.75,0.31 51.25,0.31 49.74,0.31 48.22,0.31 47.13,0.32 46.04,0.32 44.54,0.35 43.05,0.38 41.50,0.53 39.95,0.68 37.90,0.99 35.85,1.31 34.40,1.31 32.94,1.31 30.88,1.31 28.81,1.31 25.66,1.31 22.50,1.31 20.81,1.31 19.12,1.31 16.50,1.31 13.88,1.31 11.78,1.31 9.67,1.31 7.42,1.31 5.17,1.31 2.58,1.31 0,1.31 -0.15,1.29 -0.31,1.27 -0.46,1.21 -0.61,1.16 -0.74,1.07 -0.87,0.98 -0.97,0.86 -1.08,0.74 -1.15,0.60 -1.22,0.46 -1.26,0.31 -1.30,0.15 -1.30,-0.00 -1.30,-0.15 -1.26,-0.31 -1.22,-0.46 -1.15,-0.60 -1.08,-0.74 -0.97,-0.86 -0.87,-0.98 -0.74,-1.07 -0.61,-1.16 -0.46,-1.21 -0.31,-1.27 -0.15,-1.29 0.00,-1.31 0.00,-1.31 L 0,-1.31 Z"></path></g><g transform="translate(40 110.37890625) rotate(0 -7 72.5)" stroke="none"><path fill="#1e1e1e" d="M 1.31,0 Q 1.31,0 1.31,2.01 1.31,4.02 1.31,5.45 1.31,6.88 1.31,8.35 1.31,9.82 1.31,11.60 1.31,13.37 1.31,14.99 1.31,16.60 1.31,18.73 1.31,20.85 1.31,23.19 1.31,25.54 1.31,27.97 1.31,30.40 1.31,32.58 1.31,34.77 1.31,37.13 1.31,39.50 1.31,41.37 1.31,43.23 1.31,44.60 1.31,45.97 1.31,47.70 1.31,49.44 1.55,50.94 1.79,52.44 2.01,53.76 2.23,55.07 2.26,56.15 2.29,57.22 2.30,58.74 2.31,60.25 2.54,61.40 2.77,62.54 3.00,64.24 3.23,65.94 3.26,67.48 3.29,69.02 3.30,70.40 3.31,71.79 3.31,72.98 3.31,74.17 3.31,75.71 3.31,77.25 3.31,78.95 3.31,80.65 3.31,81.90 3.31,83.15 3.31,84.98 3.31,86.82 3.31,88.31 3.31,89.80 3.31,91.58 3.31,93.36 3.31,95.27 3.31,97.18 3.31,99.71 3.31,102.25 3.31,104.47 3.31,106.70 3.31,108.80 3.31,110.90 3.31,112.07 3.31,113.25 3.31,114.90 3.31,116.55 3.31,117.83 3.31,119.11 2.87,120.71 2.44,122.30 1.53,123.26 0.62,124.21 -0.15,124.99 -0.92,125.77 -2.07,127.20 -3.21,128.63 -4.57,130.40 -5.93,132.16 -6.74,133.69 -7.55,135.23 -8.55,136.57 -9.55,137.91 -10.26,138.77 -10.97,139.62 -11.81,140.79 -12.64,141.97 -13.63,143.55 -14.62,145.13 -14.74,145.31 -14.85,145.49 -15.02,145.62 -15.19,145.75 -15.39,145.82 -15.59,145.89 -15.80,145.90 -16.01,145.90 -16.21,145.83 -16.42,145.77 -16.59,145.64 -16.76,145.52 -16.88,145.34 -17.00,145.17 -17.06,144.97 -17.12,144.76 -17.11,144.55 -17.11,144.34 -17.03,144.14 -16.96,143.94 -16.82,143.78 -16.69,143.61 -16.51,143.50 -16.32,143.39 -16.12,143.34 -15.91,143.29 -15.70,143.31 -15.49,143.33 -15.29,143.42 -15.10,143.50 -14.94,143.65 -14.79,143.79 -14.68,143.98 -14.58,144.16 -14.54,144.37 -14.51,144.58 -14.54,144.79 -14.57,145.00 -14.67,145.19 -14.76,145.38 -14.91,145.53 -15.07,145.68 -15.26,145.77 -15.45,145.86 -15.66,145.89 -15.87,145.91 -16.08,145.87 -16.29,145.83 -16.47,145.72 -16.65,145.61 -16.79,145.45 -16.93,145.29 -17.02,145.10 -17.10,144.90 -17.11,144.69 -17.13,144.48 -17.07,144.27 -17.02,144.07 -17.02,144.07 -17.02,144.07 -15.90,142.25 -14.78,140.44 -13.22,138.39 -11.65,136.34 -10.76,135.16 -9.87,133.98 -8.94,132.27 -8.01,130.57 -6.64,128.78 -5.26,126.98 -4.02,125.45 -2.79,123.92 -1.57,122.69 -0.35,121.45 0.16,120.28 0.68,119.11 0.68,117.83 0.68,116.55 0.68,114.90 0.68,113.25 0.68,112.07 0.68,110.90 0.68,108.80 0.68,106.70 0.68,104.47 0.68,102.25 0.68,99.71 0.68,97.18 0.68,95.27 0.68,93.36 0.68,91.58 0.68,89.80 0.68,88.31 0.68,86.82 0.68,85.52 0.68,84.21 0.68,83.10 0.68,82.00 0.68,80.41 0.68,78.83 0.68,77.02 0.68,75.22 0.68,74.14 0.68,73.06 0.68,71.62 0.68,70.17 0.66,68.97 0.65,67.77 0.58,66.36 0.51,64.94 0.10,63.41 -0.30,61.88 -0.30,60.57 -0.31,59.26 -0.33,57.77 -0.34,56.29 -0.49,54.85 -0.64,53.41 -0.97,51.42 -1.31,49.44 -1.31,47.70 -1.31,45.97 -1.31,44.60 -1.31,43.23 -1.31,41.37 -1.31,39.50 -1.31,37.13 -1.31,34.77 -1.31,32.58 -1.31,30.40 -1.31,27.97 -1.31,25.54 -1.31,23.19 -1.31,20.85 -1.31,18.73 -1.31,16.60 -1.31,14.99 -1.31,13.37 -1.31,11.60 -1.31,9.82 -1.31,8.35 -1.31,6.88 -1.31,5.45 -1.31,4.02 -1.31,2.01 -1.31,0 -1.29,-0.15 -1.27,-0.31 -1.21,-0.46 -1.16,-0.61 -1.07,-0.74 -0.98,-0.87 -0.86,-0.97 -0.74,-1.08 -0.60,-1.15 -0.46,-1.22 -0.31,-1.26 -0.15,-1.30 0.00,-1.30 0.15,-1.30 0.31,-1.26 0.46,-1.22 0.60,-1.15 0.74,-1.08 0.86,-0.97 0.98,-0.87 1.07,-0.74 1.16,-0.61 1.21,-0.46 1.27,-0.31 1.29,-0.15 1.31,0.00 1.31,0.00 L 1.31,0 Z"></path></g><g transform="translate(44 229.37890625) rotate(0 15 11.5)" stroke="none"><path fill="#1e1e1e" d="M 0.36,-1.26 Q 0.36,-1.26 2.37,-0.68 4.38,-0.11 6.20,0.74 8.02,1.60 9.91,2.53 11.80,3.45 13.26,4.47 14.72,5.49 16.81,7.39 18.89,9.29 20.34,10.66 21.78,12.03 23.21,13.15 24.63,14.26 25.64,15.41 26.64,16.57 28.45,18.63 30.25,20.70 30.44,20.80 30.63,20.89 30.78,21.04 30.93,21.20 31.02,21.39 31.11,21.58 31.14,21.79 31.17,22.00 31.12,22.21 31.08,22.42 30.97,22.60 30.87,22.78 30.71,22.92 30.55,23.06 30.35,23.15 30.16,23.23 29.94,23.24 29.73,23.26 29.53,23.20 29.32,23.15 29.14,23.03 28.96,22.92 28.83,22.75 28.70,22.58 28.63,22.38 28.56,22.18 28.56,21.97 28.55,21.76 28.62,21.55 28.68,21.35 28.81,21.18 28.94,21.01 29.11,20.89 29.28,20.77 29.49,20.71 29.69,20.65 29.90,20.65 30.12,20.66 30.31,20.74 30.51,20.81 30.68,20.95 30.84,21.08 30.95,21.26 31.07,21.44 31.11,21.65 31.16,21.86 31.14,22.07 31.12,22.28 31.04,22.48 30.95,22.67 30.81,22.83 30.66,22.98 30.48,23.09 30.29,23.19 30.08,23.23 29.87,23.26 29.66,23.23 29.45,23.20 29.45,23.20 29.45,23.20 27.05,20.74 24.65,18.28 23.83,17.30 23.01,16.32 21.49,15.13 19.97,13.94 18.55,12.58 17.12,11.23 15.16,9.43 13.21,7.64 11.92,6.72 10.63,5.81 8.76,4.89 6.89,3.97 5.27,3.19 3.66,2.41 1.65,1.83 -0.36,1.26 -0.50,1.20 -0.65,1.13 -0.77,1.04 -0.90,0.95 -1.00,0.82 -1.10,0.70 -1.17,0.56 -1.24,0.42 -1.27,0.26 -1.30,0.11 -1.30,-0.04 -1.29,-0.20 -1.25,-0.35 -1.21,-0.51 -1.13,-0.64 -1.05,-0.78 -0.94,-0.89 -0.83,-1.01 -0.70,-1.09 -0.56,-1.18 -0.41,-1.23 -0.26,-1.28 -0.10,-1.29 0.04,-1.31 0.20,-1.28 0.36,-1.26 0.36,-1.26 L 0.36,-1.26 Z"></path></g><g mask="url(#mask-mtGQVkQsZnXw71g5rhxo0)" stroke-linecap="round"><g transform="translate(76.35546875 137.40234375) rotate(0 146.69921875 -53.08203125)"><path d="M0.11 0.47 C21.63 -17.6, 80.36 -97.65, 129.35 -107.24 C178.35 -116.82, 266.64 -65.39, 294.08 -57.06 M-1.29 -0.34 C20.15 -17.79, 79.8 -96.96, 128.96 -106.26 C178.12 -115.56, 266.07 -64.4, 293.67 -56.12" stroke="#e03131" stroke-width="1" fill="none"></path></g><g transform="translate(76.35546875 137.40234375) rotate(0 146.69921875 -53.08203125)"><path d="M268.71 -57.38 C277.48 -55.23, 282.9 -55.46, 293.67 -56.12 M268.71 -57.38 C274.15 -56.89, 281.08 -55.81, 293.67 -56.12" stroke="#e03131" stroke-width="1" fill="none"></path></g><g transform="translate(76.35546875 137.40234375) rotate(0 146.69921875 -53.08203125)"><path d="M275.36 -73.14 C282.16 -65.94, 285.45 -61.14, 293.67 -56.12 M275.36 -73.14 C279.29 -68.92, 284.63 -64.08, 293.67 -56.12" stroke="#e03131" stroke-width="1" fill="none"></path></g></g><mask id="mask-mtGQVkQsZnXw71g5rhxo0"><rect x="0" y="0" fill="#fff" width="469.75390625" height="343.56640625"></rect><rect x="134.64048767089844" y="21.23828125" fill="#000" width="140.01589965820312" height="20" opacity="1"></rect></mask><g transform="translate(134.64048767089844 21.23828125) rotate(0 88.11195392597463 62.18603131961278)"><text x="70.00794982910156" y="14.016" font-family="Virgil, Segoe UI Emoji" font-size="16px" fill="#e03131" text-anchor="middle" style="white-space: pre;" direction="ltr" dominant-baseline="alphabetic">add liquidity(XRD)</text></g><g stroke-linecap="round" transform="translate(377.7109375 10) rotate(0 157 174)"><path d="M32 0 C101.75 2.28, 170.95 -0.03, 282 0 M32 0 C94.56 1.74, 156.34 1.27, 282 0 M282 0 C303.47 0.38, 313.07 10.75, 314 32 M282 0 C304.51 -0.14, 314.88 10.29, 314 32 M314 32 C312.4 96.24, 313.51 157.81, 314 316 M314 32 C314.55 124.47, 315.39 216.4, 314 316 M314 316 C313.61 339.1, 302.94 346.35, 282 348 M314 316 C312.52 336.03, 304.96 349.85, 282 348 M282 348 C221.25 345.46, 160.03 346.24, 32 348 M282 348 C217.35 349.12, 152.58 349.73, 32 348 M32 348 C9.91 346.22, -0.06 338.81, 0 316 M32 348 C11.61 347.5, 0.63 336.97, 0 316 M0 316 C-1.92 233.42, -0.64 152.2, 0 32 M0 316 C0.77 215.57, 1.5 114.08, 0 32 M0 32 C1.55 10.41, 10.17 -0.09, 32 0 M0 32 C-1.69 9.52, 12.81 2.03, 32 0" stroke="#1e1e1e" stroke-width="1" fill="none"></path></g><g transform="translate(416.5409393310547 33.5) rotate(0 90.66999816894531 12.5)"><text x="0" y="17.52" font-family="Virgil, Segoe UI Emoji" font-size="20px" fill="#1e1e1e" text-anchor="start" style="white-space: pre;" direction="ltr" dominant-baseline="alphabetic">DSE Liquidity Pool</text></g><g mask="url(#mask-ZY-AxDo2fbuBRPrEiQmxy)" stroke-linecap="round"><g transform="translate(378.0625 260.5106860486585) rotate(0 -164.720703125 72.2002514513415)"><path d="M-0.54 -0.47 C-20.09 23.71, -62.66 144.1, -117.47 144.25 C-172.28 144.41, -294.22 24.56, -329.41 0.46 M1.37 -1.76 C-18.32 22.65, -63.18 145.51, -118.44 145.56 C-173.69 145.6, -295.24 22.66, -330.16 -1.48" stroke="#1971c2" stroke-width="1" fill="none"></path></g><g transform="translate(378.0625 260.5106860486585) rotate(0 -164.720703125 72.2002514513415)"><path d="M-306.65 7.04 C-314.04 4.46, -320.68 2.15, -330.16 -1.48 M-306.65 7.04 C-314.29 4.41, -322.93 0.15, -330.16 -1.48" stroke="#1971c2" stroke-width="1" fill="none"></path></g><g transform="translate(378.0625 260.5106860486585) rotate(0 -164.720703125 72.2002514513415)"><path d="M-317.63 20.15 C-321.82 13.9, -325.34 7.87, -330.16 -1.48 M-317.63 20.15 C-321.37 12.77, -326.02 3.74, -330.16 -1.48" stroke="#1971c2" stroke-width="1" fill="none"></path></g></g><mask id="mask-ZY-AxDo2fbuBRPrEiQmxy"><rect x="0" y="0" fill="#fff" width="807.50390625" height="505.5106860486585"></rect><rect x="168.13314056396484" y="385.2109375" fill="#000" width="184.9759063720703" height="40" opacity="1"></rect></mask><g transform="translate(168.13314056396484 385.2109375) rotate(0 45.53776882573965 -52.80089839995577)"><text x="92.48795318603516" y="14.016" font-family="Virgil, Segoe UI Emoji" font-size="16px" fill="#1971c2" text-anchor="middle" style="white-space: pre;" direction="ltr" dominant-baseline="alphabetic">remove liquidity(XRD &amp; </text><text x="92.48795318603516" y="34.016" font-family="Virgil, Segoe UI Emoji" font-size="16px" fill="#1971c2" text-anchor="middle" style="white-space: pre;" direction="ltr" dominant-baseline="alphabetic">interest)</text></g><g stroke-linecap="round" transform="translate(411.7109375 107.5) rotate(0 115 26.5)"><path d="M13.25 0 C75.55 -0.78, 139.56 0.34, 216.75 0 M216.75 0 C226.26 1.48, 229.31 4.47, 230 13.25 M230 13.25 C232.01 19.43, 231.37 26.28, 230 39.75 M230 39.75 C229.34 50.02, 227.25 53.48, 216.75 53 M216.75 53 C154.99 53.7, 91.55 54.59, 13.25 53 M13.25 53 C2.58 54.47, 1.37 49.73, 0 39.75 M0 39.75 C0.82 29.87, -1.51 21.21, 0 13.25 M0 13.25 C-0.99 4, 5.33 0.09, 13.25 0" stroke="#1e1e1e" stroke-width="1.5" fill="none" stroke-dasharray="8 9"></path></g><g transform="translate(480.9029350280762 124) rotate(0 45.80800247192383 10)"><text x="45.80800247192383" y="14.016" font-family="Virgil, Segoe UI Emoji" font-size="16px" fill="#1e1e1e" text-anchor="middle" style="white-space: pre;" direction="ltr" dominant-baseline="alphabetic">Vault&lt;XRD&gt;</text></g><g stroke-linecap="round" transform="translate(416.7109375 195.5) rotate(0 115 26.5)"><path d="M13.25 0 C63.26 -0.12, 113.67 0.33, 216.75 0 M216.75 0 C226.26 -1.94, 229.77 3.25, 230 13.25 M230 13.25 C229.22 17.77, 228.21 26.06, 230 39.75 M230 39.75 C230.41 49.59, 223.86 52.82, 216.75 53 M216.75 53 C141.1 53.03, 67.94 51.65, 13.25 53 M13.25 53 C4.04 53.05, 1.5 47.35, 0 39.75 M0 39.75 C-2.03 33.99, 1.44 27.52, 0 13.25 M0 13.25 C-0.56 4.35, 3.6 -0.29, 13.25 0" stroke="#1e1e1e" stroke-width="1.5" fill="none" stroke-dasharray="8 9"></path></g><g transform="translate(463.24427032470703 202) rotate(0 68.46666717529297 20)"><text x="68.46666717529297" y="14.016" font-family="Virgil, Segoe UI Emoji" font-size="16px" fill="#1e1e1e" text-anchor="middle" style="white-space: pre;" direction="ltr" dominant-baseline="alphabetic">Pending Unstaking</text><text x="68.46666717529297" y="34.016" font-family="Virgil, Segoe UI Emoji" font-size="16px" fill="#1e1e1e" text-anchor="middle" style="white-space: pre;" direction="ltr" dominant-baseline="alphabetic">Vault&lt;ClaimNFT&gt;</text></g></svg>