<svg version="1.1" xmlns="http://www.w3.org/2000/svg" viewBox="0 0 1098 863" width="1098" height="863">
  <!-- svg-source:excalidraw -->
  
  <defs>
    <style class="style-fonts">
      @font-face {
        font-family: "Virgil";
        src: url("https://excalidraw.com/Virgil.woff2");
      }
      @font-face {
        font-family: "Cascadia";
        src: url("https://excalidraw.com/Cascadia.woff2");
      }
      @font-face {
        font-family: "Assistant";
        src: url("https://excalidraw.com/Assistant-Regular.woff2");
      }
    </style>
    
  </defs>
  <rect x="0" y="0" width="1098" height="863" fill="#ffffff"></rect><g transform="translate(17 469) rotate(0 18.5 11)" stroke="none"><path fill="#1e1e1e" d="M 1.31,0 Q 1.31,0 1.31,1.43 1.31,2.87 1.31,4.06 1.31,5.24 1.31,6.32 1.31,7.39 1.58,8.57 1.85,9.75 2.96,11.97 4.06,14.18 5.46,16.29 6.86,18.41 7.52,19.55 8.18,20.70 8.97,21.65 9.75,22.61 11.18,23.75 12.62,24.89 13.55,25.79 14.49,26.70 16.07,27.46 17.66,28.22 18.78,28.39 19.91,28.57 21.34,28.61 22.77,28.66 23.97,28.67 25.17,28.68 26.38,28.48 27.60,28.28 28.69,27.01 29.78,25.73 30.68,24.45 31.58,23.16 32.83,21.80 34.07,20.44 34.70,19.27 35.32,18.10 35.46,16.94 35.59,15.78 35.61,14.71 35.64,13.63 35.65,12.30 35.66,10.97 35.67,9.83 35.67,8.68 35.41,6.77 35.15,4.87 34.32,2.95 33.49,1.03 32.78,0.14 32.08,-0.74 31.66,-1.92 31.23,-3.10 30.45,-4.20 29.66,-5.31 28.57,-5.93 27.48,-6.56 25.81,-6.62 24.15,-6.67 22.57,-6.68 20.99,-6.68 19.60,-6.68 18.21,-6.68 17.01,-6.68 15.82,-6.68 14.60,-6.72 13.38,-6.76 12.13,-6.27 10.89,-5.79 10.08,-5.01 9.27,-4.23 8.39,-3.39 7.51,-2.55 6.64,-1.61 5.77,-0.67 5.13,0.50 4.49,1.68 3.42,1.63 2.34,1.57 2.30,1.72 2.26,1.88 2.18,2.02 2.11,2.15 2.00,2.27 1.89,2.39 1.76,2.47 1.63,2.56 1.48,2.61 1.33,2.66 1.17,2.68 1.01,2.69 0.86,2.67 0.70,2.65 0.55,2.59 0.41,2.53 0.28,2.44 0.15,2.34 0.05,2.22 -0.04,2.10 -0.11,1.96 -0.18,1.82 -0.22,1.66 -0.25,1.51 -0.25,1.35 -0.24,1.19 -0.22,1.49 -0.19,1.80 -0.22,1.59 -0.26,1.38 -0.22,1.17 -0.19,0.96 -0.09,0.77 0.00,0.58 0.16,0.44 0.31,0.29 0.50,0.20 0.70,0.12 0.91,0.09 1.12,0.07 1.33,0.12 1.53,0.16 1.72,0.27 1.90,0.38 2.03,0.54 2.17,0.71 2.25,0.90 2.33,1.10 2.34,1.31 2.35,1.53 2.29,1.73 2.24,1.93 2.12,2.11 2.00,2.29 1.83,2.41 1.66,2.54 1.46,2.61 1.26,2.68 1.04,2.68 0.83,2.68 0.63,2.61 0.43,2.54 0.26,2.41 0.09,2.28 -0.02,2.11 -0.14,1.93 -0.19,1.73 -0.25,1.52 -0.24,1.31 -0.23,1.10 -0.15,0.90 -0.07,0.70 0.06,0.54 0.20,0.38 0.38,0.27 0.56,0.16 0.77,0.11 0.98,0.07 1.19,0.09 1.40,0.12 1.59,0.21 1.78,0.30 1.94,0.44 2.09,0.59 2.22,1.08 2.34,1.57 2.30,1.72 2.26,1.88 2.18,2.02 2.11,2.15 2.00,2.27 1.89,2.39 1.76,2.47 1.63,2.56 1.48,2.61 1.33,2.66 1.17,2.68 1.01,2.69 0.86,2.67 0.70,2.65 0.55,2.59 0.41,2.53 0.28,2.44 0.15,2.34 0.05,2.22 -0.04,2.10 -0.11,1.96 -0.18,1.82 -0.22,1.66 -0.25,1.51 -0.25,1.35 -0.24,1.19 0.88,1.01 2.01,0.83 2.64,-0.26 3.27,-1.37 4.20,-2.30 5.12,-3.24 6.17,-4.24 7.21,-5.24 8.08,-6.36 8.94,-7.48 10.32,-7.97 11.69,-8.45 13.23,-8.88 14.77,-9.31 15.85,-9.31 16.93,-9.31 18.39,-9.31 19.84,-9.31 21.09,-9.31 22.34,-9.30 24.06,-9.29 25.78,-9.28 26.88,-9.21 27.98,-9.14 29.32,-8.62 30.66,-8.10 31.70,-6.86 32.75,-5.62 33.47,-3.95 34.19,-2.29 35.03,-1.18 35.87,-0.06 36.34,0.96 36.82,2.00 37.25,3.08 37.68,4.16 37.99,5.36 38.30,6.55 38.30,7.62 38.30,8.70 38.29,9.84 38.29,10.99 38.28,12.35 38.26,13.70 38.15,15.58 38.04,17.46 37.77,18.49 37.51,19.53 36.87,20.74 36.22,21.94 34.97,23.31 33.72,24.68 32.80,26.00 31.87,27.32 30.39,28.94 28.90,30.56 27.56,30.93 26.21,31.31 25.12,31.30 24.03,31.30 22.50,31.28 20.98,31.26 19.35,31.11 17.73,30.96 16.40,30.31 15.07,29.65 13.90,29.14 12.73,28.63 11.80,27.74 10.86,26.84 9.30,25.56 7.73,24.29 6.82,23.15 5.91,22.01 5.29,20.94 4.67,19.86 3.83,18.60 3.00,17.34 2.36,16.34 1.71,15.35 0.96,13.83 0.21,12.31 -0.24,11.32 -0.70,10.33 -1.00,8.87 -1.31,7.41 -1.31,6.32 -1.31,5.24 -1.31,4.06 -1.31,2.87 -1.31,1.43 -1.31,0 -1.29,-0.15 -1.27,-0.31 -1.21,-0.46 -1.16,-0.61 -1.07,-0.74 -0.98,-0.87 -0.86,-0.97 -0.74,-1.08 -0.60,-1.15 -0.46,-1.22 -0.31,-1.26 -0.15,-1.30 0.00,-1.30 0.15,-1.30 0.31,-1.26 0.46,-1.22 0.60,-1.15 0.74,-1.08 0.86,-0.97 0.98,-0.87 1.07,-0.74 1.16,-0.61 1.21,-0.46 1.27,-0.31 1.29,-0.15 1.31,0.00 1.31,0.00 L 1.31,0 Z"></path></g><g transform="translate(10 532) rotate(0 30 -0.5)" stroke="none"><path fill="#1e1e1e" d="M 0,-1.31 Q 0,-1.31 2.58,-1.31 5.17,-1.31 7.42,-1.31 9.67,-1.31 11.78,-1.31 13.88,-1.31 16.50,-1.31 19.12,-1.31 20.81,-1.31 22.50,-1.31 25.66,-1.31 28.81,-1.31 30.88,-1.31 32.94,-1.31 34.40,-1.31 35.85,-1.31 37.53,-1.57 39.20,-1.83 40.29,-1.97 41.38,-2.12 43.02,-2.20 44.67,-2.28 45.91,-2.29 47.15,-2.30 48.70,-2.31 50.25,-2.31 51.75,-2.31 53.26,-2.31 54.76,-2.31 56.26,-2.31 57.97,-2.31 59.68,-2.31 59.89,-2.27 60.10,-2.24 60.29,-2.14 60.48,-2.04 60.62,-1.89 60.77,-1.73 60.86,-1.54 60.95,-1.35 60.97,-1.14 60.99,-0.92 60.95,-0.72 60.90,-0.51 60.79,-0.33 60.68,-0.14 60.52,-0.01 60.36,0.12 60.16,0.20 59.96,0.28 59.75,0.29 59.54,0.30 59.33,0.24 59.13,0.19 58.95,0.07 58.78,-0.04 58.65,-0.21 58.52,-0.38 58.45,-0.58 58.38,-0.78 58.38,-1.00 58.38,-1.21 58.45,-1.41 58.52,-1.61 58.65,-1.78 58.78,-1.95 58.95,-2.07 59.13,-2.19 59.33,-2.24 59.54,-2.30 59.75,-2.29 59.96,-2.28 60.16,-2.20 60.36,-2.12 60.52,-1.98 60.68,-1.84 60.79,-1.66 60.90,-1.48 60.95,-1.27 60.99,-1.07 60.97,-0.85 60.95,-0.64 60.86,-0.45 60.77,-0.26 60.62,-0.10 60.48,0.04 60.29,0.14 60.10,0.24 59.89,0.27 59.68,0.31 59.68,0.31 59.68,0.31 56.97,0.31 54.26,0.31 52.75,0.31 51.25,0.31 49.74,0.31 48.22,0.31 47.13,0.32 46.04,0.32 44.54,0.35 43.05,0.38 41.50,0.53 39.95,0.68 37.90,0.99 35.85,1.31 34.40,1.31 32.94,1.31 30.88,1.31 28.81,1.31 25.66,1.31 22.50,1.31 20.81,1.31 19.12,1.31 16.50,1.31 13.88,1.31 11.78,1.31 9.67,1.31 7.42,1.31 5.17,1.31 2.58,1.31 0,1.31 -0.15,1.29 -0.31,1.27 -0.46,1.21 -0.61,1.16 -0.74,1.07 -0.87,0.98 -0.97,0.86 -1.08,0.74 -1.15,0.60 -1.22,0.46 -1.26,0.31 -1.30,0.15 -1.30,-0.00 -1.30,-0.15 -1.26,-0.31 -1.22,-0.46 -1.15,-0.60 -1.08,-0.74 -0.97,-0.86 -0.87,-0.98 -0.74,-1.07 -0.61,-1.16 -0.46,-1.21 -0.31,-1.27 -0.15,-1.29 0.00,-1.31 0.00,-1.31 L 0,-1.31 Z"></path></g><g transform="translate(40 497) rotate(0 -7 72.5)" stroke="none"><path fill="#1e1e1e" d="M 1.31,0 Q 1.31,0 1.31,2.01 1.31,4.02 1.31,5.45 1.31,6.88 1.31,8.35 1.31,9.82 1.31,11.60 1.31,13.37 1.31,14.99 1.31,16.60 1.31,18.73 1.31,20.85 1.31,23.19 1.31,25.54 1.31,27.97 1.31,30.40 1.31,32.58 1.31,34.77 1.31,37.13 1.31,39.50 1.31,41.37 1.31,43.23 1.31,44.60 1.31,45.97 1.31,47.70 1.31,49.44 1.55,50.94 1.79,52.44 2.01,53.76 2.23,55.07 2.26,56.15 2.29,57.22 2.30,58.74 2.31,60.25 2.54,61.40 2.77,62.54 3.00,64.24 3.23,65.94 3.26,67.48 3.29,69.02 3.30,70.40 3.31,71.79 3.31,72.98 3.31,74.17 3.31,75.71 3.31,77.25 3.31,78.95 3.31,80.65 3.31,81.90 3.31,83.15 3.31,84.98 3.31,86.82 3.31,88.31 3.31,89.80 3.31,91.58 3.31,93.36 3.31,95.27 3.31,97.18 3.31,99.71 3.31,102.25 3.31,104.47 3.31,106.70 3.31,108.80 3.31,110.90 3.31,112.07 3.31,113.25 3.31,114.90 3.31,116.55 3.31,117.83 3.31,119.11 2.87,120.71 2.44,122.30 1.53,123.26 0.62,124.21 -0.15,124.99 -0.92,125.77 -2.07,127.20 -3.21,128.63 -4.57,130.40 -5.93,132.16 -6.74,133.69 -7.55,135.23 -8.55,136.57 -9.55,137.91 -10.26,138.77 -10.97,139.62 -11.81,140.79 -12.64,141.97 -13.63,143.55 -14.62,145.13 -14.74,145.31 -14.85,145.49 -15.02,145.62 -15.19,145.75 -15.39,145.82 -15.59,145.89 -15.80,145.90 -16.01,145.90 -16.21,145.83 -16.42,145.77 -16.59,145.64 -16.76,145.52 -16.88,145.34 -17.00,145.17 -17.06,144.97 -17.12,144.76 -17.11,144.55 -17.11,144.34 -17.03,144.14 -16.96,143.94 -16.82,143.78 -16.69,143.61 -16.51,143.50 -16.32,143.39 -16.12,143.34 -15.91,143.29 -15.70,143.31 -15.49,143.33 -15.29,143.42 -15.10,143.50 -14.94,143.65 -14.79,143.79 -14.68,143.98 -14.58,144.16 -14.54,144.37 -14.51,144.58 -14.54,144.79 -14.57,145.00 -14.67,145.19 -14.76,145.38 -14.91,145.53 -15.07,145.68 -15.26,145.77 -15.45,145.86 -15.66,145.89 -15.87,145.91 -16.08,145.87 -16.29,145.83 -16.47,145.72 -16.65,145.61 -16.79,145.45 -16.93,145.29 -17.02,145.10 -17.10,144.90 -17.11,144.69 -17.13,144.48 -17.07,144.27 -17.02,144.07 -17.02,144.07 -17.02,144.07 -15.90,142.25 -14.78,140.44 -13.22,138.39 -11.65,136.34 -10.76,135.16 -9.87,133.98 -8.94,132.27 -8.01,130.57 -6.64,128.78 -5.26,126.98 -4.02,125.45 -2.79,123.92 -1.57,122.69 -0.35,121.45 0.16,120.28 0.68,119.11 0.68,117.83 0.68,116.55 0.68,114.90 0.68,113.25 0.68,112.07 0.68,110.90 0.68,108.80 0.68,106.70 0.68,104.47 0.68,102.25 0.68,99.71 0.68,97.18 0.68,95.27 0.68,93.36 0.68,91.58 0.68,89.80 0.68,88.31 0.68,86.82 0.68,85.52 0.68,84.21 0.68,83.10 0.68,82.00 0.68,80.41 0.68,78.83 0.68,77.02 0.68,75.22 0.68,74.14 0.68,73.06 0.68,71.62 0.68,70.17 0.66,68.97 0.65,67.77 0.58,66.36 0.51,64.94 0.10,63.41 -0.30,61.88 -0.30,60.57 -0.31,59.26 -0.33,57.77 -0.34,56.29 -0.49,54.85 -0.64,53.41 -0.97,51.42 -1.31,49.44 -1.31,47.70 -1.31,45.97 -1.31,44.60 -1.31,43.23 -1.31,41.37 -1.31,39.50 -1.31,37.13 -1.31,34.77 -1.31,32.58 -1.31,30.40 -1.31,27.97 -1.31,25.54 -1.31,23.19 -1.31,20.85 -1.31,18.73 -1.31,16.60 -1.31,14.99 -1.31,13.37 -1.31,11.60 -1.31,9.82 -1.31,8.35 -1.31,6.88 -1.31,5.45 -1.31,4.02 -1.31,2.01 -1.31,0 -1.29,-0.15 -1.27,-0.31 -1.21,-0.46 -1.16,-0.61 -1.07,-0.74 -0.98,-0.87 -0.86,-0.97 -0.74,-1.08 -0.60,-1.15 -0.46,-1.22 -0.31,-1.26 -0.15,-1.30 0.00,-1.30 0.15,-1.30 0.31,-1.26 0.46,-1.22 0.60,-1.15 0.74,-1.08 0.86,-0.97 0.98,-0.87 1.07,-0.74 1.16,-0.61 1.21,-0.46 1.27,-0.31 1.29,-0.15 1.31,0.00 1.31,0.00 L 1.31,0 Z"></path></g><g transform="translate(44 616) rotate(0 15 11.5)" stroke="none"><path fill="#1e1e1e" d="M 0.36,-1.26 Q 0.36,-1.26 2.37,-0.68 4.38,-0.11 6.20,0.74 8.02,1.60 9.91,2.53 11.80,3.45 13.26,4.47 14.72,5.49 16.81,7.39 18.89,9.29 20.34,10.66 21.78,12.03 23.21,13.15 24.63,14.26 25.64,15.41 26.64,16.57 28.45,18.63 30.25,20.70 30.44,20.80 30.63,20.89 30.78,21.04 30.93,21.20 31.02,21.39 31.11,21.58 31.14,21.79 31.17,22.00 31.12,22.21 31.08,22.42 30.97,22.60 30.87,22.78 30.71,22.92 30.55,23.06 30.35,23.15 30.16,23.23 29.94,23.24 29.73,23.26 29.53,23.20 29.32,23.15 29.14,23.03 28.96,22.92 28.83,22.75 28.70,22.58 28.63,22.38 28.56,22.18 28.56,21.97 28.55,21.76 28.62,21.55 28.68,21.35 28.81,21.18 28.94,21.01 29.11,20.89 29.28,20.77 29.49,20.71 29.69,20.65 29.90,20.65 30.12,20.66 30.31,20.74 30.51,20.81 30.68,20.95 30.84,21.08 30.95,21.26 31.07,21.44 31.11,21.65 31.16,21.86 31.14,22.07 31.12,22.28 31.04,22.48 30.95,22.67 30.81,22.83 30.66,22.98 30.48,23.09 30.29,23.19 30.08,23.23 29.87,23.26 29.66,23.23 29.45,23.20 29.45,23.20 29.45,23.20 27.05,20.74 24.65,18.28 23.83,17.30 23.01,16.32 21.49,15.13 19.97,13.94 18.55,12.58 17.12,11.23 15.16,9.43 13.21,7.64 11.92,6.72 10.63,5.81 8.76,4.89 6.89,3.97 5.27,3.19 3.66,2.41 1.65,1.83 -0.36,1.26 -0.50,1.20 -0.65,1.13 -0.77,1.04 -0.90,0.95 -1.00,0.82 -1.10,0.70 -1.17,0.56 -1.24,0.42 -1.27,0.26 -1.30,0.11 -1.30,-0.04 -1.29,-0.20 -1.25,-0.35 -1.21,-0.51 -1.13,-0.64 -1.05,-0.78 -0.94,-0.89 -0.83,-1.01 -0.70,-1.09 -0.56,-1.18 -0.41,-1.23 -0.26,-1.28 -0.10,-1.29 0.04,-1.31 0.20,-1.28 0.36,-1.26 0.36,-1.26 L 0.36,-1.26 Z"></path></g><g stroke-linecap="round" transform="translate(273 239) rotate(0 157 174)"><path d="M32 0 C123.81 -0.35, 212.25 -0.72, 282 0 M32 0 C83.44 -1.94, 134.48 -2.74, 282 0 M282 0 C304.41 0.82, 313.57 8.84, 314 32 M282 0 C302.08 1.3, 313.4 10.3, 314 32 M314 32 C312.8 131.61, 311.56 227.36, 314 316 M314 32 C313.1 106.56, 313.49 180.37, 314 316 M314 316 C312.38 338.91, 301.99 346.44, 282 348 M314 316 C315.86 337.53, 301.19 349.89, 282 348 M282 348 C229.87 346.35, 180.73 348.74, 32 348 M282 348 C229.36 347.74, 176.69 348.47, 32 348 M32 348 C9.72 348.83, -0.26 338.17, 0 316 M32 348 C12.23 346.84, -0.16 339.09, 0 316 M0 316 C2.2 231.49, 2.44 148.64, 0 32 M0 316 C-1.88 240.37, -1.72 166.5, 0 32 M0 32 C1.86 11.86, 11.81 -1.46, 32 0 M0 32 C-2.06 8.61, 9.12 -2.09, 32 0" stroke="#1e1e1e" stroke-width="1" fill="none"></path></g><g transform="translate(317 261) rotate(0 112.16999816894531 12.5)"><text x="0" y="17.52" font-family="Virgil, Segoe UI Emoji" font-size="20px" fill="#1e1e1e" text-anchor="start" style="white-space: pre;" direction="ltr" dominant-baseline="alphabetic">DeXian Staking Earning</text></g><g stroke-linecap="round" transform="translate(311 309) rotate(0 115 26.5)"><path d="M13.25 0 C90.8 2.04, 167.43 0.51, 216.75 0 M216.75 0 C225.16 -1.12, 228.63 6.05, 230 13.25 M230 13.25 C230.61 22.51, 231.92 34.57, 230 39.75 M230 39.75 C228.11 46.72, 224.98 51.75, 216.75 53 M216.75 53 C151.62 50.04, 88.06 51.63, 13.25 53 M13.25 53 C4.85 54.27, -0.75 46.67, 0 39.75 M0 39.75 C-0.34 33.62, -1.78 23.58, 0 13.25 M0 13.25 C1.63 4.23, 5.56 -1.92, 13.25 0" stroke="#1e1e1e" stroke-width="1.5" fill="none" stroke-dasharray="8 9"></path></g><g transform="translate(352 324.5) rotate(0 71.84000396728516 10)"><text x="0" y="14.016" font-family="Virgil, Segoe UI Emoji" font-size="16px" fill="#1e1e1e" text-anchor="start" style="white-space: pre;" direction="ltr" dominant-baseline="alphabetic">Validators Ranking</text></g><g stroke-linecap="round" transform="translate(309 394.5) rotate(0 115 26.5)"><path d="M13.25 0 C89.22 0.46, 167.51 1.36, 216.75 0 M216.75 0 C223.96 0.03, 229.49 4.04, 230 13.25 M230 13.25 C229.96 19.37, 231.19 24.79, 230 39.75 M230 39.75 C229.8 48.99, 225.28 51.22, 216.75 53 M216.75 53 C153.1 54.87, 92.64 53.34, 13.25 53 M13.25 53 C4.8 51.34, 0.01 46.91, 0 39.75 M0 39.75 C-0.48 27.93, -1.08 17.88, 0 13.25 M0 13.25 C-0.53 4.06, 5.6 -1.21, 13.25 0" stroke="#1e1e1e" stroke-width="1.5" fill="none" stroke-dasharray="8 9"></path></g><g transform="translate(349.15999603271484 411) rotate(0 82.7199935913086 10)"><text x="0" y="14.016" font-family="Virgil, Segoe UI Emoji" font-size="16px" fill="#1e1e1e" text-anchor="start" style="white-space: pre;" direction="ltr" dominant-baseline="alphabetic">Validators Rebalance</text></g><g stroke-linecap="round" transform="translate(311 486.5) rotate(0 115 26.5)"><path d="M13.25 0 C70.2 -1.84, 126.73 -2.81, 216.75 0 M216.75 0 C225.29 -0.08, 228.94 4.7, 230 13.25 M230 13.25 C229.39 20.8, 229.46 27.67, 230 39.75 M230 39.75 C228.78 48.14, 227.19 53.04, 216.75 53 M216.75 53 C170.82 52.82, 126.24 52.41, 13.25 53 M13.25 53 C3.86 51.29, 0.22 46.9, 0 39.75 M0 39.75 C0.25 27.56, 1.47 18.2, 0 13.25 M0 13.25 C-0.72 2.64, 4.61 -0.96, 13.25 0" stroke="#1e1e1e" stroke-width="1.5" fill="none" stroke-dasharray="8 9"></path></g><g transform="translate(348.15999603271484 498) rotate(0 44.72800064086914 10)"><text x="0" y="14.016" font-family="Virgil, Segoe UI Emoji" font-size="16px" fill="#1e1e1e" text-anchor="start" style="white-space: pre;" direction="ltr" dominant-baseline="alphabetic">Vault&lt;LSU&gt;</text></g><g mask="url(#mask-mtGQVkQsZnXw71g5rhxo0)" stroke-linecap="round"><g transform="translate(75 548) rotate(0 98 -68.5)"><path d="M0.11 0.47 C14.42 -16.58, 53.3 -78.04, 86.06 -101.07 C118.82 -124.1, 178.26 -131.59, 196.68 -137.73 M-1.29 -0.34 C12.93 -16.76, 52.74 -77.35, 85.67 -100.1 C118.6 -122.84, 177.69 -130.6, 196.28 -136.79" stroke="#1e1e1e" stroke-width="1" fill="none"></path></g><g transform="translate(75 548) rotate(0 98 -68.5)"><path d="M175.51 -122.88 C182.78 -125.58, 186.87 -130.66, 196.28 -136.79 M175.51 -122.88 C179.86 -126.05, 185.79 -128.6, 196.28 -136.79" stroke="#1e1e1e" stroke-width="1" fill="none"></path></g><g transform="translate(75 548) rotate(0 98 -68.5)"><path d="M171.42 -139.49 C180.17 -136.88, 185.56 -136.65, 196.28 -136.79 M171.42 -139.49 C176.84 -138.65, 183.75 -137.23, 196.28 -136.79" stroke="#1e1e1e" stroke-width="1" fill="none"></path></g></g><mask id="mask-mtGQVkQsZnXw71g5rhxo0"><rect x="0" y="0" fill="#fff" width="371" height="785"></rect><rect x="109.4640007019043" y="438" fill="#000" width="101.0719985961914" height="20" opacity="1"></rect></mask><g transform="translate(109.4640007019043 438) rotate(0 63.2337533949688 41.3686591077596)"><text x="50.5359992980957" y="14.016" font-family="Virgil, Segoe UI Emoji" font-size="16px" fill="#1e1e1e" text-anchor="middle" style="white-space: pre;" direction="ltr" dominant-baseline="alphabetic">1. Redemption</text></g><g stroke-linecap="round" transform="translate(761 10) rotate(0 157 174)"><path d="M32 0 C85.91 2.26, 140.45 1.88, 282 0 M32 0 C107.1 0.58, 182.05 2.05, 282 0 M282 0 C302.18 -1.23, 312.95 11.51, 314 32 M282 0 C301.5 -2.1, 314.81 10.43, 314 32 M314 32 C314.63 125.25, 315.38 215.77, 314 316 M314 32 C314.15 111.32, 314.04 191.76, 314 316 M314 316 C312.85 338.82, 304.38 348.36, 282 348 M314 316 C314.02 337.67, 302.05 350.05, 282 348 M282 348 C217.08 350.38, 151.23 349.45, 32 348 M282 348 C213.24 349.76, 144.28 350.29, 32 348 M32 348 C9.1 349.87, 1.39 338.75, 0 316 M32 348 C9.32 348.64, -0.03 337.09, 0 316 M0 316 C0.17 205.2, 0.53 95.06, 0 32 M0 316 C1.43 213.26, 0.48 110.24, 0 32 M0 32 C1.55 10.18, 9.96 0.59, 32 0 M0 32 C-1.92 11.49, 8.85 -1.2, 32 0" stroke="#1e1e1e" stroke-width="1" fill="none"></path></g><g mask="url(#mask-k8uinTDnlcETSTOXIFebe)" stroke-linecap="round"><g transform="translate(588 411) rotate(0 87.5 -118)"><path d="M-1 -0.32 C11.76 -26.15, 47.65 -115.6, 77.07 -155.04 C106.5 -194.49, 159.33 -223.65, 175.54 -236.98 M0.67 -1.53 C13.24 -27.68, 47.1 -117.56, 76.16 -156.67 C105.23 -195.77, 158.71 -222.78, 175.06 -236.18" stroke="#1e1e1e" stroke-width="1" fill="none"></path></g><g transform="translate(588 411) rotate(0 87.5 -118)"><path d="M160.44 -215.9 C164.89 -222.54, 171.98 -228.65, 175.06 -236.18 M160.44 -215.9 C162.77 -220.48, 166.65 -223.97, 175.06 -236.18" stroke="#1e1e1e" stroke-width="1" fill="none"></path></g><g transform="translate(588 411) rotate(0 87.5 -118)"><path d="M150.83 -230.04 C158.53 -231.8, 168.89 -233.1, 175.06 -236.18 M150.83 -230.04 C155.18 -231.61, 161.16 -232.02, 175.06 -236.18" stroke="#1e1e1e" stroke-width="1" fill="none"></path></g></g><mask id="mask-k8uinTDnlcETSTOXIFebe"><rect x="0" y="0" fill="#fff" width="863" height="747"></rect><rect x="621.1920013427734" y="245" fill="#000" width="87.61599731445312" height="20" opacity="1"></rect></mask><g transform="translate(621.1920013427734 245) rotate(0 54.07743679396805 47.348298649862414)"><text x="43.80799865722656" y="14.016" font-family="Virgil, Segoe UI Emoji" font-size="16px" fill="#1e1e1e" text-anchor="middle" style="white-space: pre;" direction="ltr" dominant-baseline="alphabetic">2. Unstake</text></g><g transform="translate(801.8300018310547 37.5) rotate(0 98.6600112915039 12.5)"><text x="0" y="17.52" font-family="Virgil, Segoe UI Emoji" font-size="20px" fill="#1e1e1e" text-anchor="start" style="white-space: pre;" direction="ltr" dominant-baseline="alphabetic">Radix Validator Set</text></g><g stroke-linecap="round" transform="translate(802 130.5) rotate(0 115 26.499999999999996)"><path d="M13.25 0 C61.97 -1.38, 112.75 -1.4, 216.75 0 M216.75 0 C226.2 0.42, 228.73 2.48, 230 13.25 M230 13.25 C228.88 21.26, 228.67 30.21, 230 39.75 M230 39.75 C231.87 47, 225.35 53.98, 216.75 53 M216.75 53 C150.58 50.31, 86.72 50.91, 13.25 53 M13.25 53 C4.5 51.42, -1.24 48.88, 0 39.75 M0 39.75 C0.19 32.3, 0.53 24.03, 0 13.25 M0 13.25 C-1.74 5.38, 5.31 -1.02, 13.25 0" stroke="#1e1e1e" stroke-width="1.5" fill="none" stroke-dasharray="8 9"></path></g><g transform="translate(874 152) rotate(0 35.608001708984375 10)"><text x="0" y="14.016" font-family="Virgil, Segoe UI Emoji" font-size="16px" fill="#1e1e1e" text-anchor="start" style="white-space: pre;" direction="ltr" dominant-baseline="alphabetic">Validator</text></g><g stroke-linecap="round" transform="translate(774 505) rotate(0 157 174)"><path d="M32 0 C101.75 2.28, 170.95 -0.03, 282 0 M32 0 C94.56 1.74, 156.34 1.27, 282 0 M282 0 C303.47 0.38, 313.07 10.75, 314 32 M282 0 C304.51 -0.14, 314.88 10.29, 314 32 M314 32 C312.4 96.24, 313.51 157.81, 314 316 M314 32 C314.55 124.47, 315.39 216.4, 314 316 M314 316 C313.61 339.1, 302.94 346.35, 282 348 M314 316 C312.52 336.03, 304.96 349.85, 282 348 M282 348 C221.25 345.46, 160.03 346.24, 32 348 M282 348 C217.35 349.12, 152.58 349.73, 32 348 M32 348 C9.91 346.22, -0.06 338.81, 0 316 M32 348 C11.61 347.5, 0.63 336.97, 0 316 M0 316 C-1.92 233.42, -0.64 152.2, 0 32 M0 316 C0.77 215.57, 1.5 114.08, 0 32 M0 32 C1.55 10.41, 10.17 -0.09, 32 0 M0 32 C-1.69 9.52, 12.81 2.03, 32 0" stroke="#1e1e1e" stroke-width="1" fill="none"></path></g><g transform="translate(812.8300018310547 528.5) rotate(0 90.66999816894531 12.5)"><text x="0" y="17.52" font-family="Virgil, Segoe UI Emoji" font-size="20px" fill="#1e1e1e" text-anchor="start" style="white-space: pre;" direction="ltr" dominant-baseline="alphabetic">DSE Liquidity Pool</text></g><g mask="url(#mask-HjQJHWZEVZRsSYhSZRdYY)" stroke-linecap="round"><g transform="translate(773 679) rotate(0 -94.5 -130)"><path d="M1.97 2.51 C-18.17 -8.92, -87.18 -26.38, -119.24 -69.79 C-151.29 -113.2, -179.1 -226.41, -190.38 -257.95 M-0.41 1.4 C-21.09 -9.59, -89.52 -23.17, -121.6 -67.13 C-153.69 -111.09, -182.33 -230.91, -192.94 -262.37" stroke="#e03131" stroke-width="1" fill="none"></path></g><g transform="translate(773 679) rotate(0 -94.5 -130)"><path d="M-176.32 -242.41 C-184.59 -250.3, -187.13 -255.02, -192.22 -261.87 M-177.79 -241.5 C-183.46 -250.78, -189.67 -256.57, -193.47 -262.87" stroke="#e03131" stroke-width="1" fill="none"></path></g><g transform="translate(773 679) rotate(0 -94.5 -130)"><path d="M-192.73 -237.59 C-195.12 -247.31, -191.82 -253.75, -192.22 -261.87 M-194.19 -236.68 C-193.73 -247.6, -193.81 -255.19, -193.47 -262.87" stroke="#e03131" stroke-width="1" fill="none"></path></g></g><mask id="mask-HjQJHWZEVZRsSYhSZRdYY"><rect x="0" y="0" fill="#fff" width="1062" height="1039"></rect><rect x="570.1333312988281" y="591" fill="#000" width="167.73333740234375" height="40" opacity="1"></rect></mask><g transform="translate(570.1333312988281 591) rotate(0 107.38191659137607 -41.92909195348622)"><text x="83.86666870117188" y="14.016" font-family="Virgil, Segoe UI Emoji" font-size="16px" fill="#e03131" text-anchor="middle" style="white-space: pre;" direction="ltr" dominant-baseline="alphabetic">4. Consuming Liquidity</text><text x="83.86666870117188" y="34.016" font-family="Virgil, Segoe UI Emoji" font-size="16px" fill="#e03131" text-anchor="middle" style="white-space: pre;" direction="ltr" dominant-baseline="alphabetic">(optional)</text></g><g mask="url(#mask--0mTQeQXCt6iH7H7NRIo3)" stroke-linecap="round"><g transform="translate(418 587) rotate(0 -172 13)"><path d="M2.64 1.39 C-30.39 9.82, -140.68 56.42, -198.09 51.86 C-255.49 47.3, -317.31 -12.98, -341.78 -25.97 M0.62 -0.32 C-32.89 7.21, -143.75 51.79, -200.91 47.85 C-258.08 43.92, -318.4 -11.86, -342.38 -23.93" stroke="#1971c2" stroke-width="1" fill="none"></path></g><g transform="translate(418 587) rotate(0 -172 13)"><path d="M-317.08 -18.86 C-324.15 -18.05, -334.26 -22.04, -343.86 -24.94 M-317.89 -18.36 C-324.17 -19.19, -329.34 -20.25, -341.72 -23.07" stroke="#1971c2" stroke-width="1" fill="none"></path></g><g transform="translate(418 587) rotate(0 -172 13)"><path d="M-326.53 -4.61 C-330.79 -8.2, -338.04 -16.52, -343.86 -24.94 M-327.33 -4.1 C-331.23 -8.3, -334.17 -12.74, -341.72 -23.07" stroke="#1971c2" stroke-width="1" fill="none"></path></g></g><mask id="mask--0mTQeQXCt6iH7H7NRIo3"><rect x="0" y="0" fill="#fff" width="862" height="761"></rect><rect x="141.0999984741211" y="607" fill="#000" width="159.8000030517578" height="60" opacity="1"></rect></mask><g transform="translate(141.0999984741211 607) rotate(0 107.02764770776037 -6.900531764081876)"><text x="79.9000015258789" y="14.016" font-family="Virgil, Segoe UI Emoji" font-size="16px" fill="#1971c2" text-anchor="middle" style="white-space: pre;" direction="ltr" dominant-baseline="alphabetic">4. ClaimNFT </text><text x="79.9000015258789" y="34.016" font-family="Virgil, Segoe UI Emoji" font-size="16px" fill="#1971c2" text-anchor="middle" style="white-space: pre;" direction="ltr" dominant-baseline="alphabetic">(In Normal)</text><text x="79.9000015258789" y="54.016" font-family="Virgil, Segoe UI Emoji" font-size="16px" fill="#1971c2" text-anchor="middle" style="white-space: pre;" direction="ltr" dominant-baseline="alphabetic">ready for claim XRD</text></g><g mask="url(#mask-ZY-AxDo2fbuBRPrEiQmxy)" stroke-linecap="round"><g transform="translate(437 589) rotate(0 -195 96.5)"><path d="M-0.54 -0.47 C-30.18 31.76, -113.13 184.35, -178.03 192.55 C-242.94 200.76, -354.78 72.86, -389.97 48.76 M1.37 -1.76 C-28.41 30.7, -113.65 185.76, -179 193.86 C-244.34 201.95, -355.8 70.96, -390.72 46.82" stroke="#e03131" stroke-width="1" fill="none"></path></g><g transform="translate(437 589) rotate(0 -195 96.5)"><path d="M-367.54 56.19 C-374.83 53.37, -381.37 50.82, -390.72 46.82 M-367.54 56.19 C-375.06 53.26, -383.58 48.68, -390.72 46.82" stroke="#e03131" stroke-width="1" fill="none"></path></g><g transform="translate(437 589) rotate(0 -195 96.5)"><path d="M-378.98 68.89 C-382.94 62.52, -386.24 56.37, -390.72 46.82 M-378.98 68.89 C-382.44 61.35, -386.8 52.16, -390.72 46.82" stroke="#e03131" stroke-width="1" fill="none"></path></g></g><mask id="mask-ZY-AxDo2fbuBRPrEiQmxy"><rect x="0" y="0" fill="#fff" width="927" height="882"></rect><rect x="212.95000076293945" y="762" fill="#000" width="92.0999984741211" height="40" opacity="1"></rect></mask><g transform="translate(212.95000076293945 762) rotate(0 29.379111751765038 -76.7709175561559)"><text x="46.04999923706055" y="14.016" font-family="Virgil, Segoe UI Emoji" font-size="16px" fill="#e03131" text-anchor="middle" style="white-space: pre;" direction="ltr" dominant-baseline="alphabetic">5. XRD</text><text x="46.04999923706055" y="34.016" font-family="Virgil, Segoe UI Emoji" font-size="16px" fill="#e03131" text-anchor="middle" style="white-space: pre;" direction="ltr" dominant-baseline="alphabetic">(in Instant)</text></g><g stroke-linecap="round" transform="translate(808 602.5) rotate(0 115 26.5)"><path d="M13.25 0 C75.55 -0.78, 139.56 0.34, 216.75 0 M216.75 0 C226.26 1.48, 229.31 4.47, 230 13.25 M230 13.25 C232.01 19.43, 231.37 26.28, 230 39.75 M230 39.75 C229.34 50.02, 227.25 53.48, 216.75 53 M216.75 53 C154.99 53.7, 91.55 54.59, 13.25 53 M13.25 53 C2.58 54.47, 1.37 49.73, 0 39.75 M0 39.75 C0.82 29.87, -1.51 21.21, 0 13.25 M0 13.25 C-0.99 4, 5.33 0.09, 13.25 0" stroke="#1e1e1e" stroke-width="1.5" fill="none" stroke-dasharray="8 9"></path></g><g transform="translate(877.1919975280762 619) rotate(0 45.80800247192383 10)"><text x="45.80800247192383" y="14.016" font-family="Virgil, Segoe UI Emoji" font-size="16px" fill="#1e1e1e" text-anchor="middle" style="white-space: pre;" direction="ltr" dominant-baseline="alphabetic">Vault&lt;XRD&gt;</text></g><g stroke-linecap="round" transform="translate(813 690.5) rotate(0 115 26.5)"><path d="M13.25 0 C63.26 -0.12, 113.67 0.33, 216.75 0 M216.75 0 C226.26 -1.94, 229.77 3.25, 230 13.25 M230 13.25 C229.22 17.77, 228.21 26.06, 230 39.75 M230 39.75 C230.41 49.59, 223.86 52.82, 216.75 53 M216.75 53 C141.1 53.03, 67.94 51.65, 13.25 53 M13.25 53 C4.04 53.05, 1.5 47.35, 0 39.75 M0 39.75 C-2.03 33.99, 1.44 27.52, 0 13.25 M0 13.25 C-0.56 4.35, 3.6 -0.29, 13.25 0" stroke="#1e1e1e" stroke-width="1.5" fill="none" stroke-dasharray="8 9"></path></g><g transform="translate(863.0666656494141 697) rotate(0 64.93333435058594 20)"><text x="64.93333435058594" y="14.016" font-family="Virgil, Segoe UI Emoji" font-size="16px" fill="#1e1e1e" text-anchor="middle" style="white-space: pre;" direction="ltr" dominant-baseline="alphabetic">Pending Unstake</text><text x="64.93333435058594" y="34.016" font-family="Virgil, Segoe UI Emoji" font-size="16px" fill="#1e1e1e" text-anchor="middle" style="white-space: pre;" direction="ltr" dominant-baseline="alphabetic">Vault&lt;ClaimNFT&gt;</text></g><g mask="url(#mask-xQTe_RwjJOneWlQBYNDCN)" stroke-linecap="round"><g transform="translate(915.5 361.5) rotate(0 -163 39.5)"><path d="M0.09 -0.18 C-28.87 12.68, -121.8 69.71, -175.83 78.88 C-229.87 88.04, -299.43 58.8, -324.1 54.79 M-3.31 -2.75 C-31.18 10.43, -116.83 73.61, -170.43 82.44 C-224.02 91.27, -299.6 55.67, -324.87 50.23" stroke="#1971c2" stroke-width="1" fill="none"></path></g><g transform="translate(915.5 361.5) rotate(0 -163 39.5)"><path d="M-300.02 47.95 C-305.64 50.85, -309.95 51.25, -323.56 48.59 M-299.18 49.45 C-310.28 50.19, -319.31 50.62, -325.46 49.7" stroke="#1971c2" stroke-width="1" fill="none"></path></g><g transform="translate(915.5 361.5) rotate(0 -163 39.5)"><path d="M-305.24 64.24 C-309.78 63.44, -312.9 60.14, -323.56 48.59 M-304.4 65.74 C-313.49 60.27, -320.52 54.48, -325.46 49.7" stroke="#1971c2" stroke-width="1" fill="none"></path></g></g><mask id="mask-xQTe_RwjJOneWlQBYNDCN"><rect x="0" y="0" fill="#fff" width="1341.5" height="540.5"></rect><rect x="694.2666664123535" y="430.5" fill="#000" width="94.46666717529297" height="20" opacity="1"></rect></mask><g transform="translate(694.2666664123535 430.5) rotate(0 58.840852904617805 -28.453986163746762)"><text x="47.233333587646484" y="14.016" font-family="Virgil, Segoe UI Emoji" font-size="16px" fill="#1971c2" text-anchor="middle" style="white-space: pre;" direction="ltr" dominant-baseline="alphabetic">3. CalimNFT</text></g><g mask="url(#mask-6hGuvH-CDjIdT4ORn8KI5)" stroke-linecap="round"><g transform="translate(942.5 363.5) rotate(0 28.5 72)"><path d="M-0.43 0.52 C9.24 12.96, 56.01 47.91, 56.23 71.92 C56.46 95.92, 9.97 132.24, 0.9 144.56 M-4.11 -1.67 C5.28 11.4, 52.97 50.02, 53.58 74.96 C54.2 99.9, 7.95 137, -0.42 147.98" stroke="#e03131" stroke-width="1" fill="none"></path></g><g transform="translate(942.5 363.5) rotate(0 28.5 72)"><path d="M10.2 124.63 C6.41 131.21, 5.15 137.27, 0.91 149.69 M9.75 125.89 C7.32 129.14, 5.65 135.88, 0.43 148.93" stroke="#e03131" stroke-width="1" fill="none"></path></g><g transform="translate(942.5 363.5) rotate(0 28.5 72)"><path d="M22.46 136.56 C15.87 140.29, 11.71 143.52, 0.91 149.69 M22 137.82 C17.02 138.62, 12.76 142.84, 0.43 148.93" stroke="#e03131" stroke-width="1" fill="none"></path></g></g><mask id="mask-6hGuvH-CDjIdT4ORn8KI5"><rect x="0" y="0" fill="#fff" width="1099.5" height="607.5"></rect><rect x="927.6500015258789" y="416.5" fill="#000" width="143.6999969482422" height="40" opacity="1"></rect></mask><g transform="translate(927.6500015258789 416.5) rotate(0 40.91406905667566 20.152781093865627)"><text x="71.8499984741211" y="14.016" font-family="Virgil, Segoe UI Emoji" font-size="16px" fill="#e03131" text-anchor="middle" style="white-space: pre;" direction="ltr" dominant-baseline="alphabetic">3. Collateral</text><text x="71.8499984741211" y="34.016" font-family="Virgil, Segoe UI Emoji" font-size="16px" fill="#e03131" text-anchor="middle" style="white-space: pre;" direction="ltr" dominant-baseline="alphabetic">ClaimNFT(optional)</text></g></svg>